:SAMPLES-PER-SECOND 30
:FULLY-SPECIFIED
:DEGREES
261
root  5.27496 40.6214 6.47455 177.947 58.5578 172.023
RightUpLeg  -14.217 -7.79721 -15.5525
RightLeg  17.2447 -6.49761 -2.67677
RightFoot  9.07733 -3.08998 17.4352
RightToes  -5.8209e-011 0 -3.6325e-017
Spine  1.57078 -5.01312 -14.9948
Spine1  19.0209 -6.03583 0.708151
HEad  -15.4885 44.4803 -19.2656
LeftShoulder1  -0.661158 7.14304 -10.9214
LeftArm  -3.24755 -15.1867 -47.6743
LeftForeArm  144.375 -61.1934 -159.63
LeftHand  -1.53157 -3.53754 20.021
RightShoulder  1.47621 3.93515 12.8832
RightArm  -1.95788 -47.3542 50.3812
RightForeArm  129.012 77.8862 125.352
RightHand  -4.08412 10.2256 -30.0083
LeftUpLeg  -4.49531 -9.70073 1.24181
LeftLeg  15.611 -7.76391 -0.574188
LeftFoot  3.6568 1.28706 -10.0303
LeftToes  6.82088e-011 -2.45093e-011 5.71991e-013
262
root  6.82932 41.068 6.75503 179.185 58.6906 173.365
RightUpLeg  -14.235 -7.4116 -13.5287
RightLeg  8.86333 -3.65737 -2.46504
RightFoot  12.8816 -3.45469 16.4272
RightToes  -5.8209e-011 0 -3.6325e-017
Spine  1.80276 -4.78991 -13.5417
Spine1  17.5613 -6.25057 2.54118
HEad  -14.6971 44.8699 -18.5248
LeftShoulder1  -0.858549 9.83019 -5.64498
LeftArm  -3.3202 -14.9714 -45.0689
LeftForeArm  141.762 -61.9382 -158.759
LeftHand  -1.52984 -3.01495 21.1872
RightShoulder  1.45401 4.93737 9.9383
RightArm  2.0977 -54.5542 45.7184
RightForeArm  147.289 72.6784 145.556
RightHand  -4.10813 10.2716 -30.0955
LeftUpLeg  -2.62158 -6.86894 3.42166
LeftLeg  14.0765 -7.62066 -0.31172
LeftFoot  8.73122 2.05026 -11.8662
LeftToes  6.82088e-011 -2.45093e-011 5.71991e-013
263
root  8.29459 41.0888 7.04943 178.812 59.034 173.88
RightUpLeg  -14.4194 -9.14732 -12.3938
RightLeg  5.12245 -3.92398 -2.70936
RightFoot  16.8352 -4.01093 16.3222
RightToes  -5.8209e-011 0 -3.6325e-017
Spine  3.83152 -4.32111 -13.1425
Spine1  15.0548 -6.70978 5.46059
HEad  -14.8906 45.5032 -18.9797
LeftShoulder1  -0.833542 11.281 -2.4069
LeftArm  -1.17366 -10.1013 -42.3882
LeftForeArm  142.853 -62.6033 -158.302
LeftHand  -1.53315 -2.78299 21.7867
RightShoulder  1.32437 5.26927 7.543
RightArm  9.53592 -57.6552 36.5458
RightForeArm  158.644 66.9157 155.829
RightHand  -3.59296 9.77173 -27.2776
LeftUpLeg  -0.928469 -9.74266 4.74307
LeftLeg  15.31 -3.21241 0.0955112
LeftFoot  10.1598 2.69026 -14.4576
LeftToes  6.82088e-011 -2.45093e-011 5.71991e-013
264
root  9.82737 40.6647 7.35519 177.835 59.7843 173.75
RightUpLeg  -14.8339 -9.60893 -12.2642
RightLeg  5.55317 -5.85783 -2.15837
RightFoot  18.8604 -4.72482 17.9202
RightToes  -5.8209e-011 0 -3.6325e-017
Spine  5.41382 -4.03999 -13.3163
Spine1  12.9358 -7.0413 7.58461
HEad  -16.0256 46.5829 -20.2275
LeftShoulder1  -0.658731 10.4142 -1.14262
LeftArm  2.63313 -0.564946 -40.0264
LeftForeArm  146.661 -61.9195 -159.227
LeftHand  -1.82578 -3.6031 23.5388
RightShoulder  1.05126 4.68622 4.97308
RightArm  11.7026 -56.1858 31.7381
RightForeArm  166.605 62.8385 160.487
RightHand  -2.75925 9.16704 -22.0841
LeftUpLeg  -0.0799004 -12.4473 5.61784
LeftLeg  19.3519 0.13391 0.293299
LeftFoot  8.93776 3.02056 -17.107
LeftToes  6.82088e-011 -2.45093e-011 5.71991e-013
265
root  11.4483 39.9134 7.61214 177.497 61.9226 174.429
RightUpLeg  -16.3244 -9.00679 -11.1339
RightLeg  11.7654 -4.44551 -1.6542
RightFoot  14.503 -4.17321 18.4272
RightToes  -5.8209e-011 0 -3.6325e-017
Spine  5.53613 -3.40065 -12.0951
Spine1  12.4927 -6.20694 7.62483
HEad  -17.9805 47.4254 -21.0988
LeftShoulder1  -0.466819 8.04764 -2.14093
LeftArm  5.33705 10.3967 -39.1067
LeftForeArm  151.063 -60.2782 -160.91
LeftHand  -2.06486 -4.56856 24.0541
RightShoulder  0.777297 3.34413 3.32913
RightArm  6.49946 -51.7924 33.6595
RightForeArm  167.107 60.4089 162.279
RightHand  -2.26685 8.84136 -18.6946
LeftUpLeg  1.32862 -12.0136 6.80883
LeftLeg  24.1584 0.871782 0.764517
LeftFoot  5.86917 2.80347 -18.6176
LeftToes  6.82088e-011 -2.45093e-011 5.71991e-013
266
root  13.0734 38.9349 7.86782 177.498 64.6919 176.19
RightUpLeg  -18.074 -6.99399 -8.94225
RightLeg  22.4245 -2.58295 -1.38583
RightFoot  3.92611 -2.15499 15.9806
RightToes  -5.8209e-011 0 -3.6325e-017
Spine  5.13791 -2.22109 -9.78257
Spine1  14.0092 -4.4606 6.4122
HEad  -21.0479 47.7599 -22.0138
LeftShoulder1  -0.406596 6.3905 -6.2124
LeftArm  3.29992 17.879 -40.695
LeftForeArm  154.528 -59.9835 -161.565
LeftHand  -1.88914 -4.67131 21.8396
RightShoulder  0.630072 1.47685 4.94602
RightArm  -1.79391 -43.8018 36.2404
RightForeArm  159.662 58.6082 162.821
RightHand  -2.20361 8.26391 -18.9159
LeftUpLeg  3.70775 -12.4015 8.04824
LeftLeg  29.5319 1.50569 1.25992
LeftFoot  2.62903 2.30734 -18.7896
LeftToes  6.82088e-011 -2.45093e-011 5.71991e-013
267
root  14.5588 37.9415 8.14991 177.987 65.9554 179.077
RightUpLeg  -18.1842 -5.60754 -6.09354
RightLeg  32.0031 -3.07186 -2.34934
RightFoot  -6.83265 -0.534445 12.7184
RightToes  -5.8209e-011 0 -3.6325e-017
Spine  4.77809 -1.2668 -7.12922
Spine1  17.0427 -3.05194 5.36266
HEad  -23.6364 47.7908 -23.3319
LeftShoulder1  -0.449959 5.81325 -12.3278
LeftArm  -3.11443 19.4262 -45.8913
LeftForeArm  149.39 -65.6804 -155.61
LeftHand  -1.75468 -4.2672 21.168
RightShoulder  0.527495 -0.393556 9.74829
RightArm  -11.3186 -31.6026 37.4192
RightForeArm  148.47 59.6148 161.141
RightHand  -2.37968 7.69701 -21.1931
LeftUpLeg  5.29828 -14.4634 9.18937
LeftLeg  36.3726 1.36808 1.43188
LeftFoot  1.31369 1.87889 -16.9421
LeftToes  6.82088e-011 -2.45093e-011 5.71991e-013
268
root  15.7959 37.3219 8.36772 179.913 64.7247 -176.872
RightUpLeg  -16.3795 -5.68238 -3.14197
RightLeg  36.6971 -4.86732 -4.13447
RightFoot  -12.873 0.0715489 11.2388
RightToes  -5.8209e-011 0 -3.6325e-017
Spine  4.08525 -1.18481 -3.5959
Spine1  20.3451 -2.53825 4.78875
HEad  -22.8651 47.4864 -23.7357
LeftShoulder1  -0.336891 4.88387 -17.9121
LeftArm  -10.3912 16.1611 -52.1629
LeftForeArm  112.564 -76.6899 -124.158
LeftHand  -1.98981 -3.9094 24.7643
RightShoulder  0.464111 -1.33769 14.5049
RightArm  -19.4601 -17.9869 39.7817
RightForeArm  135.793 66.2496 153.47
RightHand  -2.72004 7.82343 -23.8673
LeftUpLeg  4.29706 -17.1021 10.8641
LeftLeg  43.6169 1.61293 2.08635
LeftFoot  1.74377 1.45646 -12.7633
LeftToes  6.82088e-011 -2.45093e-011 5.71991e-013
269
root  16.8833 37.2833 8.50357 -178.282 62.2272 -173.99
RightUpLeg  -13.4974 -7.00264 -0.928586
RightLeg  36.6252 -5.8499 -4.92342
RightFoot  -14.3666 0.195202 11.0116
RightToes  -5.8209e-011 0 -3.6325e-017
Spine  3.02793 -1.25253 -0.0258203
Spine1  22.4353 -2.02981 4.04396
HEad  -19.1501 46.2492 -22.3604
LeftShoulder1  0.0217696 3.40815 -20.6262
LeftArm  -14.1695 12.6454 -54.9982
LeftForeArm  35.6821 -77.0561 -54.6031
LeftHand  -2.13515 -3.65557 27.2299
RightShoulder  0.576405 -0.978115 16.2897
RightArm  -24.1972 -7.2221 43.3245
RightForeArm  115.513 74.7112 134.835
RightHand  -3.13338 8.42485 -26.2134
LeftUpLeg  1.06072 -18.6259 12.4577
LeftLeg  48.667 3.83495 5.09671
LeftFoot  1.48213 0.933082 -8.3321
LeftToes  6.82088e-011 -2.45093e-011 5.71991e-013
270
root  17.9506 37.7875 8.65205 -178.875 60.2854 -174.656
RightUpLeg  -10.317 -8.35941 -0.451813
RightLeg  33.7573 -6.24218 -4.73464
RightFoot  -13.0491 0.0799136 11.3485
RightToes  -5.8209e-011 0 -3.6325e-017
Spine  2.23903 -0.23397 1.70426
Spine1  23.1581 -0.34196 2.79028
HEad  -16.0044 43.6192 -20.2756
LeftShoulder1  0.239673 2.58563 -19.6663
LeftArm  -12.6386 12.3227 -53.6279
LeftForeArm  30.807 -75.5567 -49.239
LeftHand  -1.9504 -3.78111 24.6108
RightShoulder  0.749933 -0.0942036 15.3433
RightArm  -26.8305 -1.62495 44.4992
RightForeArm  94.9081 77.7719 116.605
RightHand  -3.30464 8.83112 -26.8259
LeftUpLeg  -2.62742 -17.9545 12.1772
LeftLeg  49.3403 7.20543 9.27028
LeftFoot  -0.140685 0.569753 -5.82112
LeftToes  6.82088e-011 -2.45093e-011 5.71991e-013
